<?xml version="1.0" encoding="UTF-8"?>
<!DOCTYPE svg PUBLIC "-//W3C//DTD SVG 1.1//EN" "http://www.w3.org/Graphics/SVG/1.1/DTD/svg11.dtd">
<!-- Creator: CorelDRAW X7 -->
<svg xmlns="http://www.w3.org/2000/svg" xml:space="preserve" width="215.9mm" height="279.4mm" version="1.1" style="shape-rendering:geometricPrecision; text-rendering:geometricPrecision; image-rendering:optimizeQuality; fill-rule:evenodd; clip-rule:evenodd"
viewBox="0 0 21590 27940"
 xmlns:xlink="http://www.w3.org/1999/xlink">
 <defs>
  <style type="text/css">
   <![CDATA[
    .fil0 {fill:#D43E02}
   ]]>
  </style>
 </defs>
 <g id="Capa_x0020_1">
  <metadata id="CorelCorpID_0Corel-Layer"/>
  <g id="fb_gray.svg">
   <g>
    <path class="fil0" d="M6374 5883l-1164 0c-30,0 -53,24 -53,53l0 1164c0,29 23,53 53,53l625 0 0 -492 -165 0 0 -191 165 0 0 -142c0,-164 100,-253 247,-253 70,0 130,5 148,7l0 172 -102 0c-80,0 -95,38 -95,93l0 123 190 0 -25 191 -165 0 0 492 341 0c29,0 53,-24 53,-53l0 -1164c0,-29 -24,-53 -53,-53z"/>
   </g>
  </g>
 </g>
</svg>
